<svg id="svg" version="1.1" xmlns="http://www.w3.org/2000/svg" xmlns:xlink="http://www.w3.org/1999/xlink" width="400" height="375.87301587301585" viewBox="0, 0, 400,375.87301587301585"><g id="svgg"><path id="path0" d="M335.405 54.160 C 333.892 55.180,332.598 56.015,332.532 56.015 C 332.465 56.015,331.036 56.945,329.357 58.083 C 327.677 59.220,326.151 60.150,325.965 60.150 C 325.779 60.150,325.570 60.282,325.501 60.442 C 325.432 60.603,324.192 61.532,322.744 62.507 C 321.297 63.482,318.929 65.127,317.481 66.163 C 316.034 67.199,314.004 68.635,312.970 69.354 C 308.783 72.267,305.738 74.516,301.933 77.508 C 299.733 79.238,297.256 81.141,296.429 81.736 C 295.602 82.332,294.756 83.009,294.549 83.241 C 294.342 83.474,293.412 84.260,292.481 84.989 C 289.005 87.713,285.144 90.794,284.962 90.990 C 284.859 91.101,283.421 92.280,281.767 93.609 C 280.113 94.938,278.675 96.122,278.571 96.240 C 278.468 96.358,277.538 97.119,276.504 97.931 C 275.470 98.744,273.689 100.261,272.547 101.302 C 267.923 105.517,266.497 106.767,266.311 106.767 C 266.204 106.767,265.324 107.571,264.355 108.553 C 263.387 109.535,262.002 110.817,261.278 111.402 C 256.681 115.117,233.082 138.155,222.932 148.836 C 219.934 151.991,216.996 155.024,216.402 155.576 C 213.143 158.605,211.654 160.151,211.654 160.505 C 211.654 160.724,211.400 160.902,211.090 160.902 C 210.780 160.902,210.523 161.029,210.518 161.184 C 210.513 161.339,209.752 162.296,208.826 163.309 C 207.900 164.323,207.143 165.343,207.143 165.575 C 207.143 165.808,206.847 166.262,206.485 166.585 C 206.123 166.907,204.812 168.320,203.571 169.725 C 202.331 171.130,200.918 172.722,200.431 173.264 C 199.944 173.805,198.675 175.237,197.611 176.446 C 196.547 177.654,195.338 179.024,194.925 179.490 C 194.511 179.956,193.761 180.828,193.257 181.428 C 192.753 182.028,191.061 183.969,189.497 185.741 C 187.934 187.513,185.977 189.788,185.150 190.797 C 184.323 191.806,182.885 193.501,181.955 194.565 C 181.024 195.629,179.223 197.752,177.952 199.284 C 176.681 200.815,175.274 202.488,174.825 203.001 L 174.009 203.934 176.196 204.385 C 177.399 204.633,179.229 205.026,180.263 205.259 C 181.297 205.492,182.904 205.853,183.835 206.062 C 184.765 206.271,186.506 206.582,187.704 206.754 C 188.901 206.925,190.339 207.246,190.899 207.468 C 191.459 207.689,193.017 208.033,194.361 208.232 C 195.705 208.431,197.481 208.765,198.308 208.973 C 200.438 209.510,203.805 210.146,207.519 210.714 C 210.910 211.232,214.651 211.845,218.045 212.438 C 219.182 212.637,221.798 212.967,223.858 213.171 C 225.917 213.375,228.201 213.719,228.933 213.935 C 229.665 214.150,232.304 214.425,234.799 214.546 L 239.334 214.765 241.378 213.349 C 242.502 212.570,243.770 211.617,244.197 211.230 C 244.624 210.843,245.096 210.526,245.247 210.526 C 245.397 210.526,245.725 210.359,245.975 210.153 C 247.688 208.747,250.396 206.767,250.608 206.767 C 250.748 206.767,251.585 206.175,252.468 205.451 C 253.351 204.727,254.190 204.135,254.332 204.135 C 254.475 204.135,255.207 203.653,255.961 203.064 C 256.714 202.475,258.261 201.343,259.398 200.550 C 260.536 199.756,262.447 198.420,263.646 197.580 C 264.845 196.740,266.106 195.883,266.447 195.677 C 266.789 195.470,267.878 194.751,268.868 194.079 C 269.859 193.407,270.733 192.857,270.811 192.857 C 270.889 192.857,272.585 191.758,274.582 190.414 C 276.578 189.070,278.285 187.970,278.377 187.970 C 278.468 187.970,279.860 187.076,281.470 185.984 C 284.521 183.916,288.334 181.955,289.308 181.955 C 289.619 181.955,289.971 181.701,290.090 181.391 C 290.209 181.081,290.716 180.827,291.217 180.827 C 291.719 180.827,292.222 180.584,292.336 180.286 C 292.451 179.989,293.023 179.640,293.609 179.511 C 294.195 179.383,294.767 179.034,294.882 178.736 C 294.996 178.439,295.421 178.195,295.826 178.195 C 296.231 178.195,296.786 177.984,297.060 177.726 C 297.333 177.467,298.542 176.748,299.746 176.128 C 303.598 174.143,303.940 173.943,304.323 173.454 C 304.775 172.876,313.682 168.459,320.207 165.577 C 320.879 165.280,321.978 164.794,322.650 164.497 C 324.322 163.756,326.918 162.673,328.947 161.869 C 329.878 161.500,331.400 160.891,332.331 160.515 C 333.261 160.139,335.038 159.442,336.278 158.968 C 337.519 158.493,338.914 157.868,339.380 157.580 L 340.226 157.056 340.220 144.412 C 340.217 137.457,340.034 121.194,339.813 108.271 C 339.591 95.348,339.298 77.514,339.160 68.640 C 339.001 58.415,338.772 52.468,338.534 52.405 C 338.327 52.349,336.919 53.139,335.405 54.160 M160.150 221.039 C 160.150 221.286,159.008 222.983,157.613 224.810 C 156.217 226.637,154.821 228.500,154.511 228.950 C 153.612 230.256,152.483 231.766,151.968 232.353 C 151.537 232.843,149.756 235.216,139.288 249.248 C 137.514 251.626,135.180 254.800,134.102 256.301 C 133.025 257.803,131.466 259.961,130.639 261.099 C 129.812 262.236,128.966 263.460,128.759 263.820 C 127.775 265.531,125.044 268.798,124.819 268.532 C 124.680 268.368,122.982 266.203,121.047 263.722 C 119.111 261.241,117.429 259.126,117.307 259.023 C 117.186 258.919,116.373 257.904,115.502 256.767 C 114.630 255.630,113.780 254.530,113.612 254.323 C 113.445 254.117,111.373 251.494,109.008 248.496 C 106.644 245.498,104.453 242.759,104.140 242.410 C 103.827 242.060,101.541 239.160,99.060 235.965 C 93.268 228.506,94.098 228.854,89.797 232.088 C 87.832 233.566,84.714 235.909,82.868 237.295 C 74.758 243.385,70.916 246.279,69.737 247.186 C 63.767 251.779,57.057 256.767,56.847 256.769 C 56.700 256.770,56.071 257.235,55.451 257.802 C 54.831 258.370,53.604 259.323,52.726 259.920 C 51.338 260.862,50.526 262.399,51.410 262.409 C 51.565 262.411,53.214 263.522,55.075 264.877 C 56.936 266.233,59.305 267.906,60.338 268.596 C 61.372 269.285,62.810 270.388,63.534 271.046 C 64.606 272.021,67.029 274.180,70.082 276.880 C 70.316 277.086,71.743 278.338,73.253 279.660 C 74.764 280.983,78.851 284.958,82.336 288.495 C 88.954 295.212,89.942 296.250,94.040 300.798 C 96.969 304.048,98.093 305.285,99.978 307.331 C 102.004 309.529,104.538 312.449,105.827 314.071 C 106.447 314.851,107.135 315.684,107.356 315.921 C 107.849 316.453,112.826 322.185,114.770 324.461 C 115.553 325.378,117.583 327.941,119.281 330.157 C 120.979 332.374,122.573 334.192,122.824 334.199 C 123.385 334.213,122.902 334.798,129.993 325.531 C 133.250 321.274,136.166 317.516,136.472 317.179 C 136.779 316.843,137.199 316.347,137.406 316.077 C 138.143 315.116,142.649 309.583,142.845 309.398 C 142.955 309.295,143.711 308.365,144.526 307.331 C 145.340 306.297,146.270 305.172,146.593 304.830 C 146.916 304.489,147.557 303.715,148.016 303.110 C 148.476 302.505,149.281 301.548,149.805 300.983 C 150.329 300.418,152.057 298.485,153.646 296.688 C 155.235 294.891,156.632 293.336,156.750 293.233 C 156.868 293.130,157.722 292.115,158.648 290.977 C 159.573 289.840,161.038 288.148,161.903 287.218 C 162.769 286.288,163.870 285.076,164.351 284.525 C 174.015 273.464,190.156 257.197,200.709 247.884 C 201.615 247.083,202.887 245.921,203.534 245.301 C 204.644 244.237,210.167 239.298,212.563 237.227 C 213.167 236.705,214.520 235.493,215.571 234.533 C 216.622 233.573,218.031 232.309,218.703 231.724 C 220.080 230.524,220.226 229.912,219.267 229.353 C 218.743 229.048,218.954 228.957,220.301 228.905 C 221.231 228.870,220.216 228.690,218.045 228.506 C 215.874 228.322,212.744 228.256,211.090 228.358 C 208.303 228.530,202.409 228.045,204.511 227.816 C 206.171 227.635,201.437 227.143,197.673 227.105 C 194.273 227.070,192.510 226.579,194.449 226.206 C 195.447 226.014,191.490 225.833,187.970 225.909 C 185.699 225.959,183.244 225.290,185.150 225.141 C 186.558 225.031,181.778 224.511,179.019 224.473 C 177.507 224.453,176.365 224.285,176.479 224.100 C 176.824 223.541,175.660 223.308,172.526 223.308 C 169.799 223.308,168.601 222.859,170.207 222.440 C 170.966 222.241,167.658 222.000,165.977 222.131 C 164.175 222.271,162.166 221.811,162.808 221.405 C 163.234 221.135,163.190 221.062,162.594 221.053 C 162.180 221.047,161.461 220.940,160.996 220.816 C 160.464 220.673,160.150 220.756,160.150 221.039 " stroke="none" fill="#0ca558" fill-rule="evenodd"></path><path id="path1" d="M0.000 187.970 L 0.000 375.940 200.000 375.940 L 400.000 375.940 400.000 187.970 L 400.000 0.000 200.000 0.000 L 0.000 0.000 0.000 187.970 M339.986 54.981 C 340.122 57.101,340.403 80.983,340.610 108.054 L 340.987 157.272 340.165 158.148 C 339.713 158.629,339.033 159.023,338.655 159.023 C 338.277 159.023,337.336 159.361,336.564 159.774 C 335.793 160.188,334.897 160.526,334.573 160.526 C 334.250 160.526,333.824 160.662,333.628 160.827 C 333.431 160.993,332.256 161.513,331.015 161.984 C 329.774 162.455,328.064 163.165,327.214 163.563 C 326.365 163.960,325.392 164.286,325.053 164.286 C 324.714 164.286,324.436 164.447,324.436 164.645 C 324.436 164.842,323.850 165.113,323.134 165.248 C 322.417 165.382,321.635 165.728,321.396 166.017 C 321.156 166.305,320.570 166.541,320.094 166.541 C 319.617 166.541,318.981 166.787,318.681 167.087 C 318.381 167.387,317.700 167.742,317.166 167.875 C 316.633 168.009,315.999 168.356,315.759 168.646 C 315.518 168.936,315.118 169.173,314.870 169.173 C 314.622 169.173,312.486 170.136,310.123 171.314 L 305.827 173.455 307.143 173.855 C 307.867 174.075,308.828 174.465,309.280 174.722 C 309.731 174.978,310.418 175.188,310.806 175.188 C 311.193 175.188,311.839 175.436,312.240 175.740 C 312.642 176.043,313.224 176.303,313.534 176.317 C 313.844 176.330,314.774 176.668,315.602 177.068 C 316.429 177.467,317.359 177.805,317.669 177.819 C 317.979 177.832,318.561 178.092,318.963 178.395 C 319.364 178.699,319.923 178.947,320.205 178.947 C 321.355 178.947,330.344 183.417,334.398 186.004 C 338.956 188.913,339.609 189.399,341.835 191.540 C 348.969 198.403,348.370 205.786,340.371 209.581 C 339.688 209.905,339.028 210.335,338.904 210.536 C 338.779 210.738,338.391 210.908,338.042 210.915 C 337.692 210.922,336.729 211.255,335.902 211.654 C 335.075 212.054,334.181 212.386,333.915 212.393 C 333.650 212.400,333.027 212.671,332.532 212.996 C 330.848 214.099,329.226 213.581,328.775 211.796 C 328.560 210.944,328.213 210.014,328.005 209.729 C 327.796 209.444,327.303 208.574,326.909 207.795 C 326.514 207.017,324.881 205.156,323.278 203.660 C 320.048 200.645,320.055 200.650,317.669 199.061 C 316.739 198.441,315.893 197.838,315.789 197.720 C 315.588 197.490,309.498 194.017,307.822 193.177 C 304.375 191.448,303.230 190.895,300.188 189.485 C 298.327 188.624,296.466 187.765,296.053 187.578 C 295.151 187.171,292.382 186.186,290.715 185.679 C 290.053 185.478,289.038 185.066,288.459 184.764 C 286.645 183.818,285.682 184.112,281.646 186.846 C 279.512 188.291,277.635 189.474,277.475 189.474 C 277.315 189.474,276.878 189.812,276.504 190.226 C 276.130 190.639,275.662 190.977,275.466 190.977 C 275.269 190.977,274.492 191.459,273.738 192.047 C 272.985 192.635,271.607 193.573,270.677 194.131 C 268.140 195.652,267.677 195.945,265.718 197.274 C 264.728 197.946,263.747 198.496,263.538 198.496 C 263.329 198.496,263.158 198.635,263.158 198.805 C 263.158 199.142,260.271 201.128,259.781 201.128 C 259.615 201.128,259.382 201.382,259.263 201.692 C 259.144 202.002,258.795 202.256,258.489 202.256 C 258.183 202.256,257.797 202.467,257.631 202.726 C 257.233 203.348,255.022 204.887,254.527 204.887 C 254.311 204.887,254.135 205.026,254.135 205.196 C 254.135 205.549,251.237 207.519,250.718 207.519 C 250.530 207.519,250.376 207.647,250.376 207.804 C 250.376 207.960,249.235 208.849,247.840 209.777 C 246.445 210.706,245.097 211.661,244.843 211.899 C 244.589 212.137,243.742 212.721,242.961 213.195 C 242.180 213.670,241.457 214.155,241.353 214.275 C 240.393 215.381,238.858 215.859,236.886 215.666 C 235.725 215.553,232.893 215.285,230.595 215.070 C 228.296 214.856,225.985 214.517,225.460 214.318 C 224.935 214.118,223.009 213.846,221.181 213.713 C 219.353 213.580,217.096 213.246,216.165 212.972 C 215.235 212.697,213.233 212.382,211.716 212.270 C 210.199 212.159,208.761 211.914,208.520 211.725 C 208.280 211.536,206.814 211.274,205.263 211.143 C 203.712 211.012,201.767 210.658,200.940 210.356 C 200.113 210.054,198.859 209.800,198.153 209.791 C 197.448 209.782,196.010 209.534,194.958 209.240 C 192.662 208.597,189.653 207.970,186.842 207.548 C 185.705 207.377,183.856 206.963,182.733 206.626 C 181.609 206.290,180.087 206.009,179.349 206.002 C 178.611 205.994,177.585 205.747,177.068 205.451 C 176.551 205.156,175.599 204.908,174.952 204.901 C 172.753 204.876,172.685 204.044,174.696 201.789 C 175.690 200.674,177.011 199.124,177.632 198.346 C 179.067 196.544,180.964 194.340,182.678 192.482 C 183.418 191.680,184.445 190.475,184.962 189.802 C 186.670 187.581,188.401 185.556,190.549 183.266 C 191.715 182.023,193.401 180.078,194.296 178.943 C 195.190 177.808,197.661 175.019,199.786 172.744 C 205.134 167.020,206.015 166.033,206.015 165.764 C 206.015 165.548,204.459 165.291,196.992 164.277 C 195.442 164.067,192.650 163.654,190.789 163.359 C 188.929 163.065,185.630 162.727,183.459 162.608 C 181.288 162.490,178.496 162.227,177.256 162.026 C 176.015 161.824,172.378 161.494,169.173 161.292 C 165.968 161.090,161.570 160.762,159.398 160.564 C 153.364 160.014,125.240 159.282,116.306 159.443 L 108.363 159.586 109.351 158.667 C 110.325 157.759,111.558 157.406,118.045 156.174 C 119.596 155.879,121.355 155.469,121.955 155.263 C 122.554 155.056,123.823 154.883,124.774 154.878 C 125.725 154.873,127.180 154.697,128.008 154.487 C 129.580 154.087,139.060 153.291,150.564 152.592 C 160.068 152.015,192.973 153.072,199.624 154.167 C 200.968 154.388,204.521 154.719,207.519 154.902 C 210.517 155.085,213.492 155.341,214.130 155.472 C 215.121 155.674,221.805 150.143,221.805 149.120 C 221.805 148.834,227.274 143.022,231.590 138.722 C 236.833 133.498,247.773 122.932,247.939 122.932 C 247.998 122.932,250.072 120.945,252.548 118.515 C 257.757 113.405,259.717 111.577,263.335 108.459 C 264.774 107.218,266.488 105.695,267.143 105.075 C 270.102 102.276,274.565 98.290,275.310 97.782 C 275.760 97.475,276.212 97.127,276.316 97.009 C 276.419 96.891,277.434 96.036,278.571 95.109 C 279.709 94.183,280.823 93.254,281.047 93.047 C 281.271 92.839,281.919 92.331,282.486 91.917 C 283.053 91.504,283.904 90.827,284.378 90.414 C 286.741 88.351,290.923 84.962,291.107 84.962 C 291.221 84.962,291.757 84.552,292.298 84.051 C 294.105 82.377,307.493 72.180,307.884 72.180 C 308.097 72.180,308.271 72.035,308.271 71.857 C 308.271 71.679,309.243 70.865,310.432 70.048 C 315.028 66.890,316.783 65.645,318.233 64.514 C 319.690 63.378,321.412 62.213,326.128 59.175 C 327.368 58.376,328.440 57.592,328.509 57.432 C 328.578 57.273,328.783 57.143,328.964 57.143 C 329.146 57.143,330.661 56.212,332.331 55.075 C 334.001 53.938,335.438 53.008,335.524 53.008 C 335.610 53.008,336.304 52.585,337.066 52.068 C 339.508 50.411,339.706 50.608,339.986 54.981 M94.025 170.207 C 94.245 170.775,94.664 171.720,94.957 172.305 C 95.249 172.890,95.489 173.673,95.489 174.045 C 95.489 174.416,95.742 174.931,96.053 175.188 C 96.363 175.445,96.617 175.877,96.617 176.147 C 96.617 176.711,96.882 176.991,99.661 179.369 C 100.778 180.324,102.622 181.902,103.759 182.874 C 104.897 183.847,106.335 184.883,106.955 185.178 C 107.575 185.472,108.590 186.050,109.211 186.461 C 109.831 186.873,110.592 187.323,110.902 187.461 C 111.871 187.893,116.720 190.752,116.917 191.008 C 117.021 191.142,117.528 191.373,118.045 191.521 C 118.926 191.772,120.039 192.219,122.744 193.408 C 123.365 193.681,124.718 194.272,125.752 194.722 C 126.786 195.172,128.081 195.782,128.629 196.078 C 129.178 196.374,129.961 196.617,130.369 196.617 C 130.777 196.617,131.322 196.870,131.579 197.180 C 131.836 197.491,132.322 197.750,132.659 197.757 C 132.995 197.764,133.947 198.097,134.774 198.496 C 135.602 198.896,136.701 199.234,137.218 199.247 C 137.735 199.261,138.486 199.520,138.888 199.824 C 139.289 200.128,140.050 200.377,140.579 200.378 C 141.108 200.380,142.014 200.627,142.591 200.928 C 143.168 201.229,144.252 201.590,145.000 201.731 C 145.747 201.871,146.797 202.214,147.333 202.494 C 147.870 202.774,148.741 203.004,149.270 203.005 C 149.799 203.006,150.561 203.256,150.962 203.559 C 151.363 203.863,152.199 204.118,152.820 204.126 C 153.440 204.134,154.412 204.382,154.979 204.678 C 155.547 204.974,156.798 205.335,157.760 205.479 C 158.722 205.623,159.949 205.971,160.488 206.252 C 161.026 206.533,162.063 206.763,162.792 206.765 C 163.522 206.766,164.452 206.996,164.860 207.275 C 165.268 207.554,166.508 207.887,167.615 208.014 C 168.722 208.141,169.839 208.419,170.097 208.633 C 170.354 208.847,171.393 209.127,172.406 209.255 C 173.419 209.383,174.623 209.722,175.081 210.007 C 175.539 210.293,176.554 210.527,177.336 210.529 C 178.119 210.530,179.196 210.759,179.731 211.038 C 180.265 211.317,181.919 211.665,183.407 211.811 C 184.895 211.958,186.694 212.321,187.405 212.618 C 188.116 212.915,189.444 213.158,190.356 213.158 C 191.267 213.158,192.621 213.412,193.363 213.722 C 194.105 214.032,195.389 214.286,196.215 214.286 C 197.042 214.286,198.443 214.522,199.329 214.811 C 200.215 215.099,201.955 215.441,203.195 215.571 C 204.436 215.700,206.282 216.056,207.297 216.362 C 208.312 216.667,210.211 216.917,211.518 216.917 C 212.825 216.917,214.532 217.158,215.312 217.451 C 216.092 217.745,218.183 218.063,219.959 218.158 C 221.735 218.253,223.538 218.518,223.966 218.747 C 224.395 218.976,226.240 219.268,228.068 219.395 C 229.896 219.523,232.225 219.863,233.245 220.152 C 234.265 220.440,236.802 220.687,238.884 220.699 C 240.966 220.711,243.515 220.891,244.549 221.099 C 245.583 221.306,249.936 221.708,254.223 221.990 C 258.510 222.273,262.217 222.627,262.461 222.778 C 262.705 222.929,267.910 223.178,274.028 223.331 C 280.145 223.483,287.805 223.827,291.051 224.094 C 295.793 224.484,297.711 224.488,300.825 224.112 C 307.708 223.283,313.985 223.146,314.850 223.806 C 315.660 224.425,314.531 225.188,312.804 225.188 C 312.429 225.188,311.927 225.423,311.689 225.710 C 311.451 225.997,310.288 226.352,309.105 226.498 C 307.923 226.644,306.764 226.921,306.530 227.112 C 306.297 227.304,304.690 227.564,302.959 227.691 C 301.228 227.818,299.595 228.094,299.330 228.303 C 299.065 228.512,296.781 228.821,294.255 228.988 C 291.729 229.156,288.985 229.476,288.158 229.699 C 287.292 229.932,279.555 230.246,269.925 230.438 C 255.266 230.731,247.428 230.651,224.877 229.980 C 222.431 229.908,221.651 230.013,221.306 230.462 C 221.063 230.779,219.680 232.050,218.233 233.288 C 215.630 235.514,213.850 237.075,212.251 238.534 C 211.541 239.182,210.118 240.451,204.939 245.054 C 194.838 254.033,184.492 264.147,173.185 276.098 C 170.461 278.976,167.599 281.992,166.823 282.801 C 166.048 283.609,165.414 284.412,165.414 284.585 C 165.414 284.758,165.271 284.956,165.096 285.025 C 164.921 285.094,163.373 286.758,161.655 288.722 C 159.937 290.686,158.429 292.378,158.305 292.481 C 158.181 292.585,157.133 293.853,155.977 295.301 C 154.820 296.748,153.045 298.778,152.031 299.812 C 151.017 300.846,149.401 302.707,148.439 303.947 C 147.478 305.188,146.373 306.541,145.984 306.955 C 145.596 307.368,144.272 308.976,143.042 310.526 C 140.689 313.492,139.344 315.095,138.252 316.232 C 137.890 316.609,137.594 317.021,137.594 317.147 C 137.594 317.339,135.367 320.157,134.024 321.664 C 133.817 321.898,133.393 322.471,133.083 322.939 C 132.773 323.406,132.096 324.315,131.579 324.958 C 131.063 325.602,130.470 326.351,130.263 326.624 C 130.057 326.897,129.591 327.400,129.229 327.742 C 128.867 328.083,128.571 328.579,128.571 328.843 C 128.571 329.107,128.407 329.323,128.205 329.323 C 128.004 329.323,127.595 329.789,127.298 330.357 C 127.000 330.926,126.242 331.983,125.613 332.707 C 122.827 335.911,122.621 335.943,120.769 333.457 C 118.988 331.067,117.920 329.689,117.461 329.190 C 117.243 328.953,115.995 327.406,114.686 325.752 C 113.378 324.098,112.196 322.660,112.059 322.556 C 111.922 322.453,110.741 321.100,109.435 319.549 C 108.128 317.998,106.251 315.799,105.263 314.662 C 104.275 313.524,102.645 311.586,101.639 310.353 C 100.634 309.121,98.966 307.238,97.932 306.168 C 95.387 303.535,89.408 297.068,88.232 295.677 C 87.708 295.056,84.982 292.196,82.173 289.320 C 79.365 286.444,77.068 283.949,77.068 283.775 C 77.068 283.601,76.814 283.459,76.504 283.459 C 76.194 283.459,75.940 283.205,75.940 282.895 C 75.940 282.585,75.694 282.331,75.395 282.331 C 75.095 282.331,74.714 282.119,74.549 281.861 C 74.383 281.602,73.463 280.760,72.503 279.989 C 71.543 279.218,70.187 278.034,69.489 277.358 C 68.791 276.681,67.384 275.451,66.362 274.624 C 65.340 273.797,64.224 272.847,63.881 272.512 C 62.797 271.455,58.895 268.586,52.914 264.448 C 49.593 262.150,49.525 261.374,52.448 259.117 C 53.585 258.238,54.666 257.519,54.850 257.519 C 55.033 257.519,55.280 257.265,55.399 256.955 C 55.518 256.645,55.837 256.391,56.108 256.391 C 56.378 256.391,56.872 256.095,57.204 255.733 C 57.537 255.371,58.209 254.773,58.698 254.403 C 59.187 254.033,62.092 251.834,65.154 249.516 C 68.215 247.198,70.998 245.132,71.336 244.925 C 71.675 244.718,72.299 244.235,72.724 243.852 C 73.149 243.468,73.919 242.880,74.436 242.545 C 74.953 242.210,75.511 241.720,75.677 241.456 C 75.842 241.193,76.141 240.977,76.342 240.977 C 76.542 240.977,80.298 238.219,84.688 234.846 C 89.077 231.474,92.859 228.602,93.090 228.464 C 93.492 228.223,95.489 229.637,95.489 230.162 C 95.489 230.300,95.928 230.886,96.465 231.466 C 97.003 232.045,98.336 233.703,99.429 235.150 C 101.257 237.570,102.508 239.086,103.954 240.633 C 104.261 240.961,104.511 241.408,104.511 241.627 C 104.511 241.846,104.765 242.122,105.075 242.241 C 105.385 242.360,105.639 242.717,105.639 243.033 C 105.639 243.350,105.770 243.609,105.929 243.609 C 106.089 243.609,107.146 244.816,108.279 246.291 C 109.412 247.766,110.930 249.679,111.654 250.543 C 112.378 251.406,113.308 252.589,113.722 253.171 C 114.135 253.753,114.897 254.710,115.414 255.296 C 115.930 255.883,118.299 258.896,120.677 261.991 C 124.757 267.304,125.564 268.180,125.564 267.298 C 125.564 266.968,129.520 260.998,130.051 260.526 C 130.168 260.423,131.017 259.239,131.937 257.895 C 132.858 256.551,133.746 255.282,133.910 255.075 C 134.839 253.907,138.373 249.142,139.628 247.368 C 140.432 246.231,141.318 245.165,141.598 245.000 C 141.877 244.835,142.105 244.532,142.105 244.327 C 142.105 243.994,145.689 239.117,148.405 235.754 C 148.972 235.052,150.093 233.530,150.895 232.371 C 151.698 231.212,152.628 229.975,152.963 229.623 C 153.931 228.605,154.511 227.867,154.511 227.653 C 154.511 227.544,155.442 226.251,156.579 224.779 C 159.298 221.260,159.009 220.707,154.135 220.096 C 152.998 219.953,151.611 219.603,151.053 219.317 C 150.494 219.031,149.300 218.797,148.399 218.797 C 147.498 218.797,146.432 218.549,146.030 218.245 C 145.629 217.941,144.618 217.688,143.784 217.681 C 142.950 217.675,141.305 217.331,140.128 216.917 C 138.951 216.504,137.509 216.165,136.923 216.165 C 136.337 216.165,135.530 215.917,135.128 215.613 C 134.727 215.310,133.722 215.055,132.895 215.047 C 132.068 215.039,130.941 214.798,130.391 214.511 C 129.841 214.224,128.488 213.866,127.384 213.715 C 126.279 213.564,125.042 213.208,124.634 212.923 C 124.227 212.639,123.455 212.406,122.921 212.406 C 122.386 212.406,121.620 212.158,121.218 211.854 C 120.817 211.550,120.066 211.291,119.549 211.277 C 119.032 211.264,117.932 210.926,117.105 210.526 C 116.278 210.127,115.215 209.794,114.742 209.787 C 114.270 209.780,113.509 209.540,113.051 209.253 C 112.593 208.966,111.584 208.620,110.808 208.484 C 110.033 208.348,109.398 208.075,109.398 207.878 C 109.398 207.680,109.060 207.519,108.645 207.519 C 108.231 207.519,107.261 207.180,106.489 206.767 C 105.718 206.353,104.886 206.015,104.641 206.015 C 104.397 206.015,103.717 205.782,103.132 205.497 C 100.745 204.335,99.383 203.773,98.402 203.544 C 97.834 203.411,97.368 203.164,97.368 202.996 C 97.368 202.828,96.776 202.494,96.053 202.256 C 95.329 202.017,94.737 201.665,94.737 201.475 C 94.737 201.284,94.490 201.128,94.188 201.128 C 93.680 201.128,88.310 198.401,87.423 197.692 C 85.704 196.318,83.389 194.737,83.098 194.737 C 82.903 194.737,82.609 194.521,82.443 194.258 C 82.278 193.994,81.657 193.470,81.064 193.092 C 80.470 192.714,79.901 192.084,79.798 191.691 C 79.696 191.299,79.378 190.977,79.091 190.977 C 78.805 190.977,78.571 190.800,78.571 190.583 C 78.571 190.366,78.001 189.601,77.303 188.882 C 76.343 187.894,75.974 187.124,75.788 185.721 C 75.653 184.700,75.378 183.764,75.177 183.640 C 74.631 183.302,74.759 181.492,75.388 180.661 C 75.691 180.260,75.940 179.634,75.940 179.270 C 75.940 177.231,84.333 171.783,90.789 169.629 C 92.826 168.950,93.592 169.087,94.025 170.207 " stroke="none" fill="#fbfbfb" fill-rule="evenodd"></path><path id="path2" d="M90.414 171.053 C 89.586 171.452,88.700 171.785,88.443 171.792 C 87.625 171.814,81.161 175.321,80.103 176.316 C 79.773 176.626,79.077 177.218,78.555 177.632 C 73.394 181.724,76.695 189.511,86.047 195.301 C 86.381 195.508,86.739 195.761,86.842 195.865 C 87.403 196.426,89.408 197.673,90.105 197.894 C 90.547 198.034,91.115 198.397,91.365 198.699 C 91.616 199.001,92.127 199.248,92.500 199.248 C 92.874 199.248,93.406 199.460,93.683 199.718 C 94.478 200.460,98.012 202.085,104.887 204.870 C 106.024 205.330,107.434 205.946,108.019 206.237 C 108.605 206.528,109.256 206.767,109.466 206.767 C 109.677 206.767,110.382 207.002,111.033 207.290 C 112.701 208.027,115.725 209.019,117.380 209.372 C 118.152 209.536,118.998 209.841,119.260 210.050 C 119.522 210.258,120.364 210.541,121.131 210.679 C 121.897 210.817,122.997 211.177,123.574 211.478 C 124.152 211.779,124.999 212.026,125.457 212.028 C 125.915 212.029,126.846 212.266,127.525 212.555 C 128.204 212.843,129.605 213.253,130.639 213.466 C 131.673 213.678,133.618 214.132,134.962 214.473 C 136.306 214.814,138.356 215.314,139.518 215.584 C 140.679 215.853,142.201 216.248,142.901 216.461 C 143.601 216.674,145.002 216.949,146.015 217.072 C 147.028 217.194,148.043 217.441,148.270 217.620 C 148.498 217.799,149.565 218.057,150.641 218.194 C 151.717 218.331,153.303 218.691,154.166 218.996 C 155.028 219.300,156.286 219.549,156.961 219.549 C 157.636 219.549,158.926 219.884,159.827 220.292 C 160.792 220.730,162.293 221.040,163.477 221.044 C 164.583 221.049,166.021 221.290,166.673 221.581 C 167.324 221.872,168.998 222.204,170.393 222.319 C 171.787 222.434,173.268 222.710,173.684 222.932 C 174.100 223.155,175.581 223.430,176.976 223.544 C 178.370 223.658,180.273 223.975,181.203 224.249 C 182.133 224.522,184.443 224.834,186.334 224.940 C 188.226 225.047,190.087 225.301,190.470 225.504 C 190.852 225.708,192.942 226.048,195.113 226.261 C 197.284 226.474,199.821 226.820,200.752 227.029 C 201.682 227.239,204.317 227.418,206.607 227.427 C 208.896 227.436,212.280 227.687,214.125 227.985 C 215.971 228.282,221.203 228.620,225.752 228.734 C 230.301 228.849,235.968 229.103,238.346 229.299 C 244.268 229.788,276.956 229.784,280.263 229.295 C 281.711 229.081,285.517 228.665,288.722 228.370 C 295.920 227.709,302.394 226.854,304.133 226.333 C 304.855 226.117,306.124 225.937,306.952 225.934 C 308.391 225.929,310.385 225.212,309.023 225.190 C 308.712 225.185,300.930 225.105,291.729 225.013 C 282.285 224.917,274.345 224.678,273.496 224.463 C 272.669 224.253,268.440 223.979,264.098 223.854 C 259.756 223.728,254.836 223.385,253.166 223.091 C 251.496 222.797,248.874 222.553,247.339 222.549 C 245.804 222.545,243.449 222.369,242.105 222.159 C 240.761 221.949,237.293 221.531,234.398 221.230 C 227.269 220.489,223.582 219.980,220.677 219.336 C 219.333 219.039,217.472 218.791,216.541 218.787 C 215.611 218.783,214.173 218.607,213.346 218.397 C 212.519 218.187,210.066 217.772,207.895 217.476 C 203.869 216.926,200.993 216.410,198.308 215.757 C 197.481 215.555,195.552 215.219,194.021 215.008 C 192.490 214.798,190.933 214.463,190.561 214.264 C 190.189 214.065,188.819 213.804,187.517 213.685 C 186.216 213.566,184.513 213.230,183.733 212.938 C 182.953 212.645,181.600 212.405,180.725 212.404 C 179.851 212.402,178.702 212.175,178.173 211.899 C 177.644 211.623,176.460 211.277,175.542 211.131 C 174.623 210.985,173.111 210.631,172.180 210.346 C 171.250 210.060,169.727 209.639,168.797 209.410 C 167.867 209.181,166.175 208.759,165.038 208.473 C 163.900 208.186,161.868 207.696,160.521 207.384 C 159.174 207.071,157.598 206.635,157.019 206.415 C 156.440 206.195,155.596 206.014,155.145 206.013 C 154.693 206.011,153.872 205.775,153.320 205.487 C 152.768 205.199,151.627 204.847,150.785 204.705 C 149.942 204.562,149.168 204.311,149.066 204.145 C 148.964 203.980,148.244 203.736,147.467 203.602 C 146.689 203.469,145.461 203.137,144.737 202.865 C 141.827 201.770,138.492 200.751,137.782 200.740 C 137.368 200.733,136.702 200.480,136.300 200.176 C 135.899 199.872,135.286 199.624,134.938 199.624 C 134.371 199.624,132.934 199.080,129.511 197.569 C 128.891 197.296,127.961 196.900,127.444 196.690 C 125.920 196.071,122.861 194.731,121.199 193.955 C 120.350 193.558,119.488 193.233,119.285 193.233 C 119.082 193.233,118.170 192.816,117.258 192.306 C 116.347 191.796,115.094 191.115,114.474 190.792 C 113.853 190.469,113.003 189.999,112.584 189.746 C 112.164 189.493,110.127 188.315,108.056 187.129 C 105.985 185.942,103.497 184.233,102.528 183.330 C 101.559 182.428,99.664 180.776,98.317 179.660 C 96.505 178.160,95.705 177.191,95.240 175.940 C 94.895 175.009,94.471 174.087,94.299 173.891 C 94.126 173.695,93.985 173.252,93.985 172.908 C 93.985 172.254,92.614 170.291,92.172 170.314 C 92.032 170.321,91.241 170.653,90.414 171.053 " stroke="none" fill="#060606" fill-rule="evenodd"></path><path id="path3" d="M337.066 52.068 C 336.304 52.585,335.610 53.008,335.524 53.008 C 335.438 53.008,334.001 53.938,332.331 55.075 C 330.661 56.212,329.146 57.143,328.964 57.143 C 328.783 57.143,328.578 57.273,328.509 57.432 C 328.440 57.592,327.368 58.376,326.128 59.175 C 321.412 62.213,319.690 63.378,318.233 64.514 C 316.783 65.645,315.028 66.890,310.432 70.048 C 309.243 70.865,308.271 71.679,308.271 71.857 C 308.271 72.035,308.097 72.180,307.884 72.180 C 307.493 72.180,294.105 82.377,292.298 84.051 C 291.757 84.552,291.221 84.962,291.107 84.962 C 290.923 84.962,286.741 88.351,284.378 90.414 C 283.904 90.827,283.053 91.504,282.486 91.917 C 281.919 92.331,281.271 92.839,281.047 93.047 C 280.823 93.254,279.709 94.183,278.571 95.109 C 277.434 96.036,276.419 96.891,276.316 97.009 C 276.212 97.127,275.760 97.475,275.310 97.782 C 274.565 98.290,270.102 102.276,267.143 105.075 C 266.488 105.695,264.774 107.218,263.335 108.459 C 259.717 111.577,257.757 113.405,252.548 118.515 C 250.072 120.945,247.998 122.932,247.939 122.932 C 247.773 122.932,236.833 133.498,231.590 138.722 C 227.274 143.022,221.805 148.834,221.805 149.120 C 221.805 150.143,215.121 155.674,214.130 155.472 C 213.492 155.341,210.517 155.085,207.519 154.902 C 204.521 154.719,200.968 154.388,199.624 154.167 C 192.973 153.072,160.068 152.015,150.564 152.592 C 139.060 153.291,129.580 154.087,128.008 154.487 C 127.180 154.697,125.725 154.873,124.774 154.878 C 123.823 154.883,122.554 155.056,121.955 155.263 C 121.355 155.469,119.596 155.879,118.045 156.174 C 111.558 157.406,110.325 157.759,109.351 158.667 L 108.363 159.586 116.306 159.443 C 125.240 159.282,153.364 160.014,159.398 160.564 C 161.570 160.762,165.968 161.090,169.173 161.292 C 172.378 161.494,176.015 161.824,177.256 162.026 C 178.496 162.227,181.288 162.490,183.459 162.608 C 185.630 162.727,188.929 163.065,190.789 163.359 C 192.650 163.654,195.442 164.067,196.992 164.277 C 204.459 165.291,206.015 165.548,206.015 165.764 C 206.015 166.033,205.134 167.020,199.786 172.744 C 197.661 175.019,195.190 177.808,194.296 178.943 C 193.401 180.078,191.715 182.023,190.549 183.266 C 188.401 185.556,186.670 187.581,184.962 189.802 C 184.445 190.475,183.418 191.680,182.678 192.482 C 180.964 194.340,179.067 196.544,177.632 198.346 C 177.011 199.124,175.690 200.674,174.696 201.789 C 172.685 204.044,172.753 204.876,174.952 204.901 C 175.599 204.908,176.551 205.156,177.068 205.451 C 177.585 205.747,178.611 205.994,179.349 206.002 C 180.087 206.009,181.609 206.290,182.733 206.626 C 183.856 206.963,185.705 207.377,186.842 207.548 C 189.653 207.970,192.662 208.597,194.958 209.240 C 196.010 209.534,197.448 209.782,198.153 209.791 C 198.859 209.800,200.113 210.054,200.940 210.356 C 201.767 210.658,203.712 211.012,205.263 211.143 C 206.814 211.274,208.280 211.536,208.520 211.725 C 208.761 211.914,210.199 212.159,211.716 212.270 C 213.233 212.382,215.235 212.697,216.165 212.972 C 217.096 213.246,219.353 213.580,221.181 213.713 C 223.009 213.846,224.935 214.118,225.460 214.318 C 225.985 214.517,228.296 214.856,230.595 215.070 C 232.893 215.285,235.725 215.553,236.886 215.666 C 238.858 215.859,240.393 215.381,241.353 214.275 C 241.457 214.155,242.180 213.670,242.961 213.195 C 243.742 212.721,244.589 212.137,244.843 211.899 C 245.097 211.661,246.445 210.706,247.840 209.777 C 249.235 208.849,250.376 207.960,250.376 207.804 C 250.376 207.647,250.530 207.519,250.718 207.519 C 251.237 207.519,254.135 205.549,254.135 205.196 C 254.135 205.026,254.311 204.887,254.527 204.887 C 255.022 204.887,257.233 203.348,257.631 202.726 C 257.797 202.467,258.183 202.256,258.489 202.256 C 258.795 202.256,259.144 202.002,259.263 201.692 C 259.382 201.382,259.615 201.128,259.781 201.128 C 260.271 201.128,263.158 199.142,263.158 198.805 C 263.158 198.635,263.329 198.496,263.538 198.496 C 263.747 198.496,264.728 197.946,265.718 197.274 C 267.677 195.945,268.140 195.652,270.677 194.131 C 271.607 193.573,272.985 192.635,273.738 192.047 C 274.492 191.459,275.269 190.977,275.466 190.977 C 275.662 190.977,276.130 190.639,276.504 190.226 C 276.878 189.812,277.315 189.474,277.475 189.474 C 277.635 189.474,279.512 188.291,281.646 186.846 C 285.682 184.112,286.645 183.818,288.459 184.764 C 289.038 185.066,290.053 185.478,290.715 185.679 C 292.382 186.186,295.151 187.171,296.053 187.578 C 296.466 187.765,298.327 188.624,300.188 189.485 C 303.230 190.895,304.375 191.448,307.822 193.177 C 309.498 194.017,315.588 197.490,315.789 197.720 C 315.893 197.838,316.739 198.441,317.669 199.061 C 320.055 200.650,320.048 200.645,323.278 203.660 C 324.881 205.156,326.514 207.017,326.909 207.795 C 327.303 208.574,327.796 209.444,328.005 209.729 C 328.213 210.014,328.560 210.944,328.775 211.796 C 329.226 213.581,330.848 214.099,332.532 212.996 C 333.027 212.671,333.650 212.400,333.915 212.393 C 334.181 212.386,335.075 212.054,335.902 211.654 C 336.729 211.255,337.692 210.922,338.042 210.915 C 338.391 210.908,338.779 210.738,338.904 210.536 C 339.028 210.335,339.688 209.905,340.371 209.581 C 348.370 205.786,348.969 198.403,341.835 191.540 C 339.609 189.399,338.956 188.913,334.398 186.004 C 330.344 183.417,321.355 178.947,320.205 178.947 C 319.923 178.947,319.364 178.699,318.963 178.395 C 318.561 178.092,317.979 177.832,317.669 177.819 C 317.359 177.805,316.429 177.467,315.602 177.068 C 314.774 176.668,313.844 176.330,313.534 176.317 C 313.224 176.303,312.642 176.043,312.240 175.740 C 311.839 175.436,311.193 175.188,310.806 175.188 C 310.418 175.188,309.731 174.978,309.280 174.722 C 308.828 174.465,307.867 174.075,307.143 173.855 L 305.827 173.455 310.123 171.314 C 312.486 170.136,314.622 169.173,314.870 169.173 C 315.118 169.173,315.518 168.936,315.759 168.646 C 315.999 168.356,316.633 168.009,317.166 167.875 C 317.700 167.742,318.381 167.387,318.681 167.087 C 318.981 166.787,319.617 166.541,320.094 166.541 C 320.570 166.541,321.156 166.305,321.396 166.017 C 321.635 165.728,322.417 165.382,323.134 165.248 C 323.850 165.113,324.436 164.842,324.436 164.645 C 324.436 164.447,324.714 164.286,325.053 164.286 C 325.392 164.286,326.365 163.960,327.214 163.563 C 328.064 163.165,329.774 162.455,331.015 161.984 C 332.256 161.513,333.431 160.993,333.628 160.827 C 333.824 160.662,334.250 160.526,334.573 160.526 C 334.897 160.526,335.793 160.188,336.564 159.774 C 337.336 159.361,338.277 159.023,338.655 159.023 C 339.033 159.023,339.713 158.629,340.165 158.148 L 340.987 157.272 340.610 108.054 C 340.135 45.876,340.384 49.816,337.066 52.068 M339.160 68.640 C 339.297 77.514,339.591 95.263,339.813 108.083 C 340.035 120.902,340.218 137.166,340.221 144.224 L 340.226 157.056 339.380 157.580 C 338.914 157.868,337.519 158.493,336.278 158.968 C 335.038 159.442,333.261 160.139,332.331 160.515 C 331.400 160.891,329.878 161.500,328.947 161.869 C 326.918 162.673,324.322 163.756,322.650 164.497 C 321.978 164.794,320.879 165.279,320.207 165.575 C 318.493 166.328,309.692 170.501,306.804 171.930 C 305.480 172.585,304.319 173.416,304.223 173.778 C 304.126 174.140,303.798 174.436,303.493 174.436 C 303.188 174.436,302.508 174.774,301.982 175.188 C 301.457 175.602,300.814 175.940,300.553 175.940 C 300.293 175.940,299.983 176.194,299.864 176.504 C 299.738 176.833,299.174 177.068,298.508 177.068 C 297.746 177.068,297.368 177.254,297.368 177.632 C 297.368 178.191,296.989 178.336,295.819 178.223 C 295.483 178.191,295.118 178.510,295.008 178.932 C 294.870 179.459,294.498 179.699,293.820 179.699 C 293.278 179.699,292.736 179.953,292.617 180.263 C 292.498 180.573,292.093 180.827,291.716 180.827 C 291.339 180.827,290.781 181.078,290.474 181.384 C 290.168 181.690,289.099 182.206,288.098 182.531 C 285.562 183.353,284.805 183.749,281.470 185.996 C 279.860 187.082,278.468 187.970,278.377 187.970 C 278.285 187.970,276.578 189.070,274.582 190.414 C 272.585 191.758,270.891 192.857,270.815 192.857 C 270.740 192.857,269.874 193.407,268.892 194.079 C 267.909 194.751,266.818 195.470,266.466 195.677 C 266.114 195.883,264.845 196.740,263.646 197.580 C 262.447 198.420,260.536 199.756,259.398 200.550 C 258.261 201.343,256.714 202.475,255.961 203.064 C 255.207 203.653,254.475 204.135,254.332 204.135 C 254.190 204.135,253.351 204.727,252.468 205.451 C 251.585 206.175,250.748 206.767,250.608 206.767 C 250.396 206.767,247.688 208.747,245.975 210.153 C 245.725 210.359,245.397 210.526,245.247 210.526 C 245.096 210.526,244.624 210.843,244.197 211.230 C 243.770 211.617,242.502 212.570,241.378 213.349 L 239.334 214.765 234.799 214.546 C 232.304 214.425,229.665 214.150,228.933 213.935 C 228.201 213.719,225.917 213.375,223.858 213.171 C 221.798 212.967,219.182 212.637,218.045 212.438 C 214.651 211.845,210.910 211.232,207.519 210.714 C 203.805 210.146,200.438 209.510,198.308 208.973 C 197.481 208.765,195.705 208.431,194.361 208.232 C 193.017 208.033,191.459 207.689,190.899 207.468 C 190.339 207.246,188.901 206.925,187.704 206.754 C 186.506 206.582,184.765 206.271,183.835 206.062 C 182.904 205.853,181.297 205.492,180.263 205.259 C 179.229 205.026,177.399 204.633,176.196 204.385 L 174.009 203.934 174.825 203.001 C 175.274 202.488,176.681 200.815,177.952 199.284 C 179.223 197.752,181.024 195.629,181.955 194.565 C 182.885 193.501,184.323 191.806,185.150 190.797 C 185.977 189.788,187.934 187.513,189.497 185.741 C 191.061 183.969,192.753 182.028,193.257 181.428 C 193.761 180.828,194.511 179.956,194.925 179.490 C 195.338 179.024,196.547 177.654,197.611 176.446 C 198.675 175.237,199.944 173.805,200.431 173.264 C 200.918 172.722,202.331 171.130,203.571 169.725 C 204.812 168.320,206.123 166.907,206.485 166.585 C 206.847 166.262,207.143 165.698,207.143 165.330 C 207.143 164.962,207.312 164.662,207.519 164.662 C 207.726 164.662,207.895 164.408,207.895 164.098 C 207.895 163.788,208.148 163.534,208.459 163.534 C 208.769 163.534,209.023 163.275,209.023 162.958 C 209.023 162.641,209.276 162.285,209.586 162.166 C 209.897 162.047,210.150 161.714,210.150 161.426 C 210.150 161.138,210.408 160.902,210.724 160.902 C 211.039 160.902,211.448 160.522,211.632 160.056 C 212.100 158.875,214.130 156.767,214.800 156.767 C 215.105 156.767,215.834 156.272,216.418 155.667 C 217.003 155.063,219.934 151.987,222.932 148.834 C 233.110 138.127,256.689 115.111,261.278 111.402 C 262.002 110.817,263.387 109.535,264.355 108.553 C 265.324 107.571,266.204 106.767,266.311 106.767 C 266.497 106.767,267.923 105.517,272.547 101.302 C 273.689 100.261,275.470 98.744,276.504 97.931 C 277.538 97.119,278.468 96.358,278.571 96.240 C 278.675 96.122,280.113 94.938,281.767 93.609 C 283.421 92.280,284.859 91.101,284.962 90.990 C 285.144 90.794,289.005 87.713,292.481 84.989 C 293.412 84.260,294.342 83.474,294.549 83.241 C 294.756 83.009,295.602 82.332,296.429 81.736 C 297.256 81.141,299.733 79.238,301.933 77.508 C 305.734 74.520,308.761 72.283,312.970 69.353 C 314.004 68.634,316.034 67.192,317.481 66.150 C 318.929 65.108,321.297 63.463,322.744 62.495 C 324.192 61.527,325.432 60.603,325.501 60.442 C 325.570 60.282,325.779 60.150,325.965 60.150 C 326.151 60.150,327.677 59.220,329.357 58.083 C 331.036 56.945,332.465 56.015,332.532 56.015 C 332.598 56.015,333.892 55.180,335.405 54.160 C 336.919 53.139,338.327 52.349,338.534 52.405 C 338.772 52.468,339.001 58.415,339.160 68.640 M90.789 169.629 C 84.333 171.783,75.940 177.231,75.940 179.270 C 75.940 179.634,75.691 180.260,75.388 180.661 C 74.767 181.482,74.638 183.125,75.151 183.665 C 75.338 183.862,75.585 184.361,75.700 184.774 C 75.815 185.188,75.820 184.717,75.711 183.728 C 75.159 178.693,79.609 174.379,89.002 170.844 C 92.908 169.373,93.349 169.491,94.369 172.274 C 94.843 173.567,95.307 174.398,95.401 174.122 C 95.496 173.846,95.316 173.085,95.003 172.430 C 94.690 171.776,94.252 170.775,94.029 170.207 C 93.592 169.087,92.825 168.950,90.789 169.629 M95.489 174.973 C 95.489 175.811,96.855 177.534,98.931 179.315 C 100.243 180.441,101.964 181.976,102.756 182.728 C 104.836 184.701,116.316 191.223,121.805 193.548 C 124.389 194.644,127.055 195.809,127.728 196.138 C 128.401 196.468,129.041 196.648,129.151 196.538 C 129.334 196.355,128.659 196.003,125.282 194.521 C 124.610 194.226,123.510 193.744,122.838 193.449 C 120.007 192.206,118.933 191.774,118.045 191.521 C 117.528 191.373,117.021 191.142,116.917 191.008 C 116.720 190.752,111.871 187.893,110.902 187.461 C 110.592 187.323,109.831 186.873,109.211 186.461 C 108.590 186.050,107.575 185.472,106.955 185.178 C 106.335 184.883,104.897 183.847,103.759 182.874 C 96.216 176.423,96.617 176.800,96.617 176.147 C 96.617 175.877,96.363 175.445,96.053 175.188 C 95.742 174.931,95.489 174.834,95.489 174.973 M75.942 186.664 C 75.940 187.394,77.856 189.850,78.428 189.850 C 78.579 189.850,78.346 189.469,77.910 189.004 C 77.474 188.539,76.854 187.650,76.531 187.030 C 76.061 186.126,75.944 186.054,75.942 186.664 M79.705 191.618 C 79.702 191.867,80.138 192.374,80.674 192.746 C 81.210 193.117,81.924 193.717,82.261 194.079 C 82.598 194.441,83.004 194.737,83.163 194.737 C 83.402 194.737,85.848 196.434,87.423 197.692 C 88.328 198.415,93.728 201.151,94.043 201.046 C 94.231 200.983,93.070 200.257,91.462 199.432 C 89.853 198.607,87.843 197.425,86.994 196.805 C 86.145 196.184,85.068 195.423,84.600 195.113 C 82.914 193.996,80.258 191.952,79.987 191.563 C 79.802 191.297,79.709 191.315,79.705 191.618 M129.699 196.754 C 129.699 197.028,135.220 199.202,137.970 200.012 C 139.521 200.468,141.382 201.056,142.105 201.319 C 143.541 201.841,149.732 203.729,150.940 204.014 C 151.682 204.189,151.682 204.183,150.962 203.599 C 150.561 203.274,149.799 203.006,149.270 203.005 C 148.741 203.004,147.870 202.774,147.333 202.494 C 146.797 202.214,145.747 201.871,145.000 201.731 C 144.252 201.590,143.168 201.229,142.591 200.928 C 142.014 200.627,141.108 200.380,140.579 200.378 C 140.050 200.377,139.289 200.128,138.888 199.824 C 138.486 199.520,137.735 199.261,137.218 199.247 C 136.701 199.234,135.602 198.896,134.774 198.496 C 133.947 198.097,132.995 197.764,132.659 197.757 C 132.322 197.750,131.836 197.491,131.579 197.180 C 131.176 196.695,129.699 196.360,129.699 196.754 M94.737 201.443 C 94.737 201.651,95.329 202.017,96.053 202.256 C 96.776 202.494,97.368 202.828,97.368 202.996 C 97.368 203.164,97.834 203.411,98.402 203.544 C 99.383 203.773,100.745 204.335,103.132 205.497 C 103.717 205.782,104.397 206.015,104.641 206.015 C 104.886 206.015,105.735 206.363,106.527 206.787 C 107.320 207.212,108.229 207.508,108.548 207.445 C 108.867 207.382,107.708 206.760,105.974 206.062 C 101.448 204.241,98.041 202.732,95.019 201.207 C 94.864 201.129,94.737 201.235,94.737 201.443 M153.383 204.732 C 155.191 205.315,158.979 206.328,160.526 206.640 L 161.466 206.830 160.488 206.286 C 159.949 205.986,158.722 205.623,157.760 205.479 C 156.798 205.335,155.547 204.974,154.979 204.678 C 154.412 204.382,153.440 204.150,152.820 204.163 C 151.805 204.183,151.862 204.240,153.383 204.732 M163.158 207.350 C 165.303 208.026,165.795 208.017,164.872 207.319 C 164.470 207.015,163.540 206.778,162.804 206.792 L 161.466 206.817 163.158 207.350 M109.398 207.837 C 109.398 208.057,110.033 208.348,110.808 208.484 C 111.584 208.620,112.609 208.976,113.086 209.276 C 113.564 209.576,114.325 209.768,114.778 209.704 C 115.326 209.626,114.786 209.314,113.158 208.769 C 111.814 208.320,110.418 207.837,110.056 207.695 C 109.681 207.549,109.398 207.610,109.398 207.837 M166.917 208.231 C 167.641 208.402,168.709 208.736,169.291 208.971 C 169.873 209.206,170.719 209.379,171.171 209.355 C 171.934 209.314,171.939 209.298,171.241 209.126 C 170.827 209.025,170.295 208.785,170.059 208.593 C 169.822 208.401,168.722 208.171,167.615 208.081 C 165.962 207.947,165.837 207.974,166.917 208.231 M173.496 209.973 C 175.408 210.662,175.952 210.654,175.022 209.950 C 174.621 209.647,173.775 209.406,173.142 209.415 C 172.015 209.431,172.022 209.442,173.496 209.973 M117.105 210.526 C 117.932 210.926,119.032 211.264,119.549 211.277 C 120.066 211.291,120.817 211.550,121.218 211.854 C 121.620 212.158,122.386 212.406,122.921 212.406 C 123.455 212.406,124.227 212.639,124.634 212.923 C 125.042 213.208,126.279 213.564,127.384 213.715 C 128.488 213.866,129.841 214.224,130.391 214.511 C 130.941 214.798,132.068 215.013,132.895 214.988 L 134.398 214.943 132.895 214.643 C 129.926 214.050,123.287 212.158,121.560 211.413 C 120.908 211.132,120.062 210.896,119.680 210.889 C 119.298 210.882,118.562 210.634,118.045 210.338 C 117.528 210.043,116.767 209.801,116.353 209.801 C 115.862 209.800,116.122 210.051,117.105 210.526 M177.068 210.896 C 177.791 211.052,179.145 211.360,180.075 211.581 C 182.084 212.059,185.826 212.796,187.406 213.025 L 188.534 213.189 187.326 212.634 C 186.662 212.328,184.900 211.958,183.410 211.812 C 181.921 211.665,180.265 211.317,179.731 211.038 C 179.196 210.759,178.083 210.549,177.256 210.572 L 175.752 210.613 177.068 210.896 M190.226 213.536 C 191.491 213.817,192.707 214.056,198.872 215.230 C 200.423 215.526,202.939 216.026,204.463 216.342 C 205.988 216.659,207.595 216.906,208.035 216.892 C 209.367 216.850,205.612 215.826,203.195 215.572 C 201.955 215.442,200.215 215.099,199.329 214.811 C 198.443 214.522,197.042 214.286,196.215 214.286 C 195.389 214.286,194.105 214.032,193.363 213.722 C 192.621 213.412,191.315 213.177,190.462 213.201 L 188.910 213.244 190.226 213.536 M135.128 215.613 C 135.530 215.917,136.375 216.158,137.008 216.149 C 138.135 216.133,138.129 216.122,136.654 215.591 C 134.743 214.902,134.198 214.910,135.128 215.613 M140.211 216.897 C 141.340 217.322,142.948 217.655,143.783 217.638 C 145.241 217.607,145.212 217.585,143.045 217.079 C 138.877 216.104,137.941 216.044,140.211 216.897 M211.466 217.290 C 212.293 217.443,213.731 217.677,214.662 217.809 L 216.353 218.050 215.226 217.501 C 214.605 217.199,213.167 216.965,212.030 216.981 C 210.001 217.011,209.991 217.017,211.466 217.290 M146.030 218.245 C 146.432 218.549,147.447 218.786,148.286 218.772 L 149.812 218.746 147.932 218.224 C 145.528 217.557,145.126 217.561,146.030 218.245 M219.361 218.477 C 220.808 218.662,222.585 218.978,223.308 219.179 C 224.032 219.380,225.216 219.524,225.940 219.500 L 227.256 219.455 225.752 219.158 C 224.925 218.995,223.571 218.682,222.744 218.462 C 221.917 218.243,220.226 218.080,218.985 218.102 L 216.729 218.140 219.361 218.477 M151.128 219.299 C 151.645 219.595,152.998 219.954,154.135 220.097 C 159.009 220.706,159.298 221.260,156.579 224.779 C 155.442 226.251,154.511 227.544,154.511 227.653 C 154.511 227.867,153.931 228.605,152.963 229.623 C 152.628 229.975,151.698 231.212,150.895 232.371 C 150.093 233.530,148.972 235.052,148.405 235.754 C 145.689 239.117,142.105 243.994,142.105 244.327 C 142.105 244.532,141.877 244.835,141.598 245.000 C 141.318 245.165,140.432 246.231,139.628 247.368 C 138.373 249.142,134.839 253.907,133.910 255.075 C 133.746 255.282,132.858 256.551,131.937 257.895 C 131.017 259.239,130.168 260.423,130.051 260.526 C 129.520 260.998,125.564 266.968,125.564 267.298 C 125.564 268.180,124.757 267.304,120.677 261.991 C 118.299 258.896,115.930 255.883,115.414 255.296 C 114.897 254.710,114.135 253.753,113.722 253.171 C 113.308 252.589,112.378 251.406,111.654 250.543 C 110.930 249.679,109.412 247.766,108.279 246.291 C 107.146 244.816,106.089 243.609,105.929 243.609 C 105.770 243.609,105.639 243.350,105.639 243.033 C 105.639 242.717,105.385 242.360,105.075 242.241 C 104.765 242.122,104.511 241.846,104.511 241.627 C 104.511 241.408,104.261 240.961,103.954 240.633 C 102.508 239.086,101.257 237.570,99.429 235.150 C 98.336 233.703,97.003 232.045,96.465 231.466 C 95.928 230.886,95.489 230.300,95.489 230.162 C 95.489 229.637,93.492 228.223,93.090 228.464 C 92.859 228.602,89.077 231.474,84.688 234.846 C 80.298 238.219,76.542 240.977,76.342 240.977 C 76.141 240.977,75.842 241.193,75.677 241.456 C 75.511 241.720,74.953 242.210,74.436 242.545 C 73.919 242.880,73.149 243.468,72.724 243.852 C 72.299 244.235,71.675 244.718,71.336 244.925 C 70.998 245.132,68.215 247.198,65.154 249.516 C 62.092 251.834,59.187 254.033,58.698 254.403 C 58.209 254.773,57.537 255.371,57.204 255.733 C 56.872 256.095,56.378 256.391,56.108 256.391 C 55.837 256.391,55.518 256.645,55.399 256.955 C 55.280 257.265,55.033 257.519,54.850 257.519 C 54.666 257.519,53.585 258.238,52.448 259.117 C 49.525 261.374,49.593 262.150,52.914 264.448 C 58.895 268.586,62.797 271.455,63.881 272.512 C 64.224 272.847,65.340 273.797,66.362 274.624 C 67.384 275.451,68.791 276.681,69.489 277.358 C 70.187 278.034,71.543 279.218,72.503 279.989 C 73.463 280.760,74.383 281.602,74.549 281.861 C 74.714 282.119,75.095 282.331,75.395 282.331 C 75.694 282.331,75.940 282.585,75.940 282.895 C 75.940 283.205,76.194 283.459,76.504 283.459 C 76.814 283.459,77.068 283.601,77.068 283.775 C 77.068 283.949,79.365 286.444,82.173 289.320 C 84.982 292.196,87.708 295.056,88.232 295.677 C 89.408 297.068,95.387 303.535,97.932 306.168 C 98.966 307.238,100.634 309.121,101.639 310.353 C 102.645 311.586,104.275 313.524,105.263 314.662 C 106.251 315.799,108.128 317.998,109.435 319.549 C 110.741 321.100,111.922 322.453,112.059 322.556 C 112.196 322.660,113.378 324.098,114.686 325.752 C 115.995 327.406,117.243 328.953,117.461 329.190 C 117.920 329.689,118.988 331.067,120.769 333.457 C 122.621 335.943,122.827 335.911,125.613 332.707 C 126.242 331.983,127.000 330.926,127.298 330.357 C 127.595 329.789,128.004 329.323,128.205 329.323 C 128.407 329.323,128.571 329.107,128.571 328.843 C 128.571 328.579,128.867 328.083,129.229 327.742 C 129.591 327.400,130.057 326.897,130.263 326.624 C 130.470 326.351,131.063 325.602,131.579 324.958 C 132.096 324.315,132.773 323.406,133.083 322.939 C 133.393 322.471,133.817 321.898,134.024 321.664 C 135.367 320.157,137.594 317.339,137.594 317.147 C 137.594 317.021,137.890 316.609,138.252 316.232 C 139.344 315.095,140.689 313.492,143.042 310.526 C 144.272 308.976,145.596 307.368,145.984 306.955 C 146.373 306.541,147.478 305.188,148.439 303.947 C 149.401 302.707,151.017 300.846,152.031 299.812 C 153.045 298.778,154.820 296.748,155.977 295.301 C 157.133 293.853,158.181 292.585,158.305 292.481 C 158.429 292.378,159.937 290.686,161.655 288.722 C 163.373 286.758,164.921 285.094,165.096 285.025 C 165.271 284.956,165.414 284.758,165.414 284.585 C 165.414 284.412,166.048 283.609,166.823 282.801 C 167.599 281.992,170.461 278.976,173.185 276.098 C 184.492 264.147,194.838 254.033,204.939 245.054 C 210.118 240.451,211.541 239.182,212.251 238.534 C 213.850 237.075,215.630 235.514,218.233 233.288 C 219.680 232.050,221.063 230.779,221.306 230.462 C 221.651 230.013,222.431 229.908,224.877 229.980 C 247.545 230.654,255.203 230.731,269.925 230.430 C 281.993 230.184,287.283 229.941,288.910 229.557 C 291.630 228.915,289.821 228.748,286.654 229.349 C 281.194 230.384,241.257 230.413,226.836 229.392 C 222.009 229.050,221.046 229.262,219.276 231.057 C 217.906 232.447,214.949 235.164,212.563 237.227 C 210.167 239.298,204.644 244.237,203.534 245.301 C 202.887 245.921,201.615 247.083,200.709 247.884 C 190.156 257.197,174.015 273.464,164.351 284.525 C 163.870 285.076,162.769 286.288,161.903 287.218 C 161.038 288.148,159.573 289.840,158.648 290.977 C 157.722 292.115,156.868 293.130,156.750 293.233 C 156.632 293.336,155.192 294.942,153.550 296.801 C 151.907 298.660,150.310 300.448,150.000 300.775 C 149.690 301.102,148.929 302.011,148.308 302.795 C 147.688 303.579,146.916 304.497,146.593 304.836 C 146.270 305.174,145.340 306.297,144.526 307.331 C 143.711 308.365,142.955 309.295,142.845 309.398 C 142.736 309.502,141.551 310.938,140.214 312.590 C 137.108 316.426,137.134 316.395,136.466 317.170 C 136.156 317.530,133.240 321.300,129.986 325.548 C 122.898 334.802,123.385 334.213,122.824 334.199 C 122.573 334.192,120.979 332.374,119.281 330.157 C 117.583 327.941,115.553 325.378,114.770 324.461 C 112.826 322.185,107.849 316.453,107.356 315.921 C 107.135 315.684,106.447 314.851,105.827 314.071 C 104.538 312.449,102.004 309.529,99.978 307.331 C 98.093 305.285,96.969 304.048,94.040 300.798 C 90.086 296.410,89.043 295.313,82.339 288.503 C 78.862 284.971,74.778 280.995,73.262 279.668 C 71.747 278.341,70.316 277.086,70.082 276.880 C 67.029 274.180,64.606 272.021,63.534 271.046 C 62.810 270.388,61.372 269.285,60.338 268.596 C 59.305 267.906,56.936 266.233,55.075 264.877 C 53.214 263.522,51.565 262.411,51.410 262.409 C 50.526 262.399,51.338 260.862,52.726 259.920 C 53.604 259.323,54.831 258.370,55.451 257.802 C 56.071 257.235,56.700 256.770,56.847 256.769 C 57.057 256.767,63.767 251.779,69.737 247.186 C 70.916 246.279,74.758 243.385,82.868 237.295 C 84.714 235.909,87.832 233.566,89.797 232.088 C 94.098 228.854,93.268 228.506,99.060 235.965 C 101.541 239.160,103.827 242.060,104.140 242.410 C 104.453 242.759,106.644 245.498,109.008 248.496 C 111.373 251.494,113.445 254.117,113.612 254.323 C 113.780 254.530,114.630 255.630,115.502 256.767 C 116.373 257.904,117.196 258.919,117.329 259.023 C 117.462 259.126,119.141 261.241,121.060 263.722 C 122.979 266.203,124.667 268.368,124.811 268.532 C 125.042 268.797,127.767 265.545,128.759 263.820 C 128.966 263.460,129.812 262.236,130.639 261.099 C 131.466 259.961,133.025 257.803,134.102 256.301 C 135.180 254.800,137.514 251.626,139.288 249.248 C 149.756 235.216,151.537 232.843,151.968 232.353 C 152.483 231.766,153.612 230.256,154.511 228.950 C 154.821 228.500,156.210 226.646,157.597 224.831 L 160.119 221.530 158.913 220.913 C 157.886 220.388,154.802 219.603,151.128 218.931 L 150.188 218.760 151.128 219.299 M230.263 220.120 C 233.464 220.841,235.399 220.823,233.083 220.093 C 232.152 219.800,230.630 219.572,229.699 219.586 L 228.008 219.612 230.263 220.120 M238.722 221.058 C 240.479 221.197,243.694 221.504,245.865 221.739 C 254.598 222.688,261.942 223.316,263.722 223.267 L 265.602 223.214 263.534 222.878 C 262.397 222.693,258.083 222.302,253.947 222.009 C 249.812 221.717,245.583 221.307,244.549 221.099 C 243.515 220.892,241.062 220.741,239.098 220.764 L 235.526 220.806 238.722 221.058 M273.308 223.673 C 280.532 224.136,293.076 224.435,290.226 224.076 C 288.882 223.907,283.468 223.679,278.195 223.570 C 271.540 223.432,270.046 223.463,273.308 223.673 M304.511 223.745 C 302.961 223.929,299.662 224.233,297.180 224.419 L 292.669 224.759 298.684 224.586 C 301.992 224.491,306.625 224.238,308.978 224.023 C 313.152 223.642,315.664 224.031,312.930 224.635 C 311.698 224.907,311.463 225.002,310.150 225.761 L 309.211 226.305 310.198 226.310 C 310.742 226.313,311.397 226.062,311.654 225.752 C 311.912 225.442,312.429 225.188,312.804 225.188 C 313.178 225.188,313.961 225.006,314.543 224.784 C 317.761 223.556,311.536 222.911,304.511 223.745 M305.451 226.754 C 304.831 226.960,303.308 227.275,302.068 227.454 C 299.960 227.758,300.018 227.769,302.959 227.620 C 304.690 227.532,306.297 227.302,306.530 227.109 C 306.764 226.916,307.462 226.684,308.083 226.593 C 309.150 226.437,309.140 226.427,307.895 226.404 C 307.171 226.391,306.071 226.549,305.451 226.754 M297.501 228.056 C 297.263 228.153,295.994 228.384,294.681 228.568 L 292.293 228.904 295.591 228.805 C 297.489 228.748,299.077 228.517,299.332 228.262 C 299.788 227.806,298.472 227.658,297.501 228.056 " stroke="none" fill="#97ceb0" fill-rule="evenodd"></path><path id="path4" d="M213.884 157.237 C 212.815 158.157,211.529 159.774,211.871 159.768 C 212.062 159.764,212.777 159.087,213.461 158.264 C 214.724 156.743,214.870 156.387,213.884 157.237 M88.874 170.864 C 74.891 176.275,72.289 182.249,79.887 191.493 C 80.255 191.940,82.918 193.991,84.588 195.113 C 85.049 195.423,86.126 196.181,86.980 196.796 C 88.427 197.839,98.428 203.013,100.946 204.021 C 101.563 204.268,103.929 205.226,106.203 206.150 C 108.477 207.074,111.776 208.287,113.534 208.845 C 115.291 209.403,117.285 210.094,117.964 210.381 C 118.643 210.668,119.463 210.902,119.787 210.902 C 120.110 210.902,120.908 211.132,121.560 211.413 C 123.311 212.168,127.909 213.546,128.658 213.539 C 129.015 213.536,129.946 213.766,130.725 214.050 C 131.505 214.334,132.989 214.748,134.023 214.970 C 135.056 215.192,136.917 215.623,138.158 215.927 C 142.796 217.066,149.180 218.507,155.075 219.747 C 156.729 220.095,158.457 220.615,158.915 220.904 C 159.951 221.557,160.150 221.560,160.150 220.925 C 160.150 220.252,158.532 219.549,156.984 219.549 C 156.297 219.549,155.028 219.300,154.166 218.996 C 153.303 218.691,151.717 218.331,150.641 218.194 C 149.565 218.057,148.498 217.799,148.270 217.620 C 148.043 217.441,147.028 217.194,146.015 217.072 C 145.002 216.949,143.601 216.674,142.901 216.461 C 142.201 216.248,140.679 215.853,139.518 215.584 C 138.356 215.314,136.306 214.814,134.962 214.473 C 133.618 214.132,131.673 213.678,130.639 213.466 C 129.605 213.253,128.204 212.843,127.525 212.555 C 126.846 212.266,125.915 212.029,125.457 212.028 C 124.999 212.026,124.152 211.779,123.574 211.478 C 122.997 211.177,121.897 210.817,121.131 210.679 C 120.364 210.541,119.522 210.258,119.260 210.050 C 118.998 209.841,118.152 209.536,117.380 209.372 C 115.725 209.019,112.701 208.027,111.033 207.290 C 110.382 207.002,109.677 206.767,109.466 206.767 C 109.256 206.767,108.605 206.528,108.019 206.237 C 107.434 205.946,106.024 205.330,104.887 204.870 C 101.503 203.499,100.639 203.141,99.060 202.456 C 96.231 201.229,94.186 200.188,93.683 199.718 C 93.406 199.460,92.874 199.248,92.500 199.248 C 92.127 199.248,91.616 199.001,91.365 198.699 C 91.115 198.397,90.547 198.034,90.105 197.894 C 89.408 197.673,87.403 196.426,86.842 195.865 C 86.739 195.761,86.381 195.508,86.047 195.301 C 76.695 189.511,73.394 181.724,78.555 177.632 C 79.077 177.218,79.773 176.626,80.103 176.316 C 81.122 175.357,87.633 171.805,88.370 171.805 C 88.586 171.805,89.549 171.446,90.510 171.009 L 92.257 170.213 93.121 171.218 C 93.596 171.770,93.985 172.517,93.985 172.878 C 93.985 173.239,94.126 173.695,94.299 173.891 C 94.471 174.087,94.895 175.009,95.240 175.940 C 95.705 177.191,96.505 178.160,98.317 179.660 C 99.664 180.776,101.559 182.428,102.528 183.330 C 103.497 184.233,105.985 185.942,108.056 187.129 C 110.127 188.315,112.164 189.493,112.584 189.746 C 113.003 189.999,113.853 190.469,114.474 190.792 C 115.094 191.115,116.347 191.796,117.258 192.306 C 118.170 192.816,119.082 193.233,119.285 193.233 C 119.488 193.233,120.350 193.558,121.199 193.955 C 122.861 194.731,125.920 196.071,127.444 196.690 C 127.961 196.900,128.891 197.296,129.511 197.569 C 132.934 199.080,134.371 199.624,134.938 199.624 C 135.286 199.624,135.899 199.872,136.300 200.176 C 136.702 200.480,137.368 200.733,137.782 200.740 C 138.492 200.751,141.827 201.770,144.737 202.865 C 145.461 203.137,146.689 203.469,147.467 203.602 C 148.244 203.736,148.964 203.980,149.066 204.145 C 149.168 204.311,149.942 204.562,150.785 204.705 C 151.627 204.847,152.768 205.199,153.320 205.487 C 153.872 205.775,154.693 206.011,155.145 206.013 C 155.596 206.014,156.440 206.195,157.019 206.415 C 157.598 206.635,159.174 207.071,160.521 207.384 C 161.868 207.696,163.900 208.186,165.038 208.473 C 166.175 208.759,167.867 209.181,168.797 209.410 C 169.727 209.639,171.250 210.060,172.180 210.346 C 173.111 210.631,174.623 210.985,175.542 211.131 C 176.460 211.277,177.644 211.623,178.173 211.899 C 178.702 212.175,179.851 212.402,180.725 212.404 C 181.600 212.405,182.953 212.645,183.733 212.938 C 184.513 213.230,186.216 213.566,187.517 213.685 C 188.819 213.804,190.189 214.065,190.561 214.264 C 190.933 214.463,192.490 214.798,194.021 215.008 C 195.552 215.219,197.481 215.555,198.308 215.757 C 200.993 216.410,203.869 216.926,207.895 217.476 C 210.066 217.772,212.519 218.187,213.346 218.397 C 214.173 218.607,215.611 218.783,216.541 218.787 C 217.472 218.791,219.333 219.039,220.677 219.336 C 223.582 219.980,227.269 220.489,234.398 221.230 C 237.293 221.531,240.761 221.949,242.105 222.159 C 243.449 222.369,245.804 222.545,247.339 222.549 C 248.874 222.553,251.496 222.797,253.166 223.091 C 254.836 223.385,259.756 223.728,264.098 223.854 C 268.440 223.979,272.669 224.253,273.496 224.463 C 274.345 224.678,282.285 224.917,291.729 225.013 C 300.930 225.105,308.712 225.185,309.023 225.190 C 310.385 225.212,308.391 225.929,306.952 225.934 C 306.124 225.937,304.855 226.117,304.133 226.333 C 302.409 226.849,295.934 227.709,288.910 228.355 C 285.808 228.640,281.801 229.074,280.006 229.318 C 275.712 229.904,240.216 229.628,231.579 228.942 C 224.416 228.374,218.264 228.663,219.426 229.513 C 219.896 229.856,220.310 229.895,220.785 229.641 C 221.677 229.164,222.628 229.170,232.895 229.722 C 243.016 230.265,276.723 230.251,282.636 229.701 C 292.024 228.827,294.388 228.570,298.308 227.994 C 300.583 227.660,303.628 227.148,305.075 226.856 C 306.523 226.564,308.324 226.234,309.079 226.122 C 309.833 226.011,310.658 225.671,310.911 225.366 C 311.163 225.061,311.730 224.809,312.170 224.806 C 312.610 224.803,313.199 224.655,313.480 224.477 C 314.554 223.797,313.063 223.653,308.744 224.020 C 300.140 224.751,296.341 224.836,288.534 224.471 C 284.192 224.268,276.664 223.923,271.805 223.705 C 263.357 223.325,254.149 222.636,246.053 221.778 C 243.985 221.559,240.179 221.218,237.594 221.020 C 235.009 220.822,231.675 220.410,230.185 220.105 C 228.695 219.799,226.866 219.549,226.122 219.549 C 225.378 219.549,224.060 219.377,223.193 219.167 C 222.326 218.957,219.840 218.544,217.669 218.248 C 208.491 216.999,204.523 216.363,198.684 215.208 C 195.182 214.514,192.104 213.925,188.910 213.337 C 182.591 212.173,181.294 211.901,176.128 210.655 C 174.887 210.356,172.931 209.889,171.781 209.617 C 170.632 209.345,169.109 208.937,168.398 208.710 C 167.276 208.352,162.316 207.073,157.797 205.976 C 155.357 205.385,144.094 202.042,142.105 201.319 C 141.382 201.056,139.521 200.470,137.970 200.015 C 135.537 199.302,131.733 197.838,127.632 196.035 C 127.011 195.763,124.389 194.644,121.805 193.550 C 115.442 190.856,104.908 184.666,101.434 181.579 C 96.431 177.133,96.080 176.695,94.739 173.214 C 93.266 169.389,92.981 169.275,88.874 170.864 M162.808 221.405 C 162.058 221.879,164.693 222.352,166.069 221.991 C 167.021 221.740,167.044 221.694,166.353 221.412 C 165.329 220.994,163.462 220.990,162.808 221.405 M170.207 222.455 C 168.712 222.811,169.709 223.307,171.898 223.297 C 173.355 223.290,174.034 223.167,173.684 222.973 C 172.917 222.547,171.010 222.263,170.207 222.455 M176.504 224.060 C 176.357 224.298,177.214 224.426,178.831 224.410 C 180.610 224.391,181.162 224.285,180.639 224.060 C 179.586 223.608,176.783 223.608,176.504 224.060 M185.178 225.149 C 184.506 225.412,184.501 225.451,185.115 225.686 C 186.070 226.053,189.769 225.998,190.007 225.614 C 190.367 225.032,186.442 224.654,185.178 225.149 M193.797 226.692 C 193.925 226.898,195.330 227.056,196.921 227.041 C 198.885 227.023,199.571 226.911,199.060 226.692 C 197.977 226.226,193.509 226.226,193.797 226.692 M204.511 227.787 C 203.003 228.218,208.278 228.596,211.613 228.295 C 214.419 228.043,214.441 228.032,212.782 227.768 C 210.627 227.426,205.738 227.437,204.511 227.787 " stroke="none" fill="#7c7c7c" fill-rule="evenodd"></path></g></svg>